PathFileType	4	(X/Y/Z)	Patient4_TMGait_0pt7_02_left_28.trc.trc
DataRate	CameraRate	NumFrames	NumMarkers	Units	OrigDataRate	OrigDataStartFrame	OrigNumFrames
86.956521739130	86.956521739130	4	33	mm	86.956521739130	18	       141
Frame#	Time	Sacral			L.Shoulder			Chest			R.Shoulder			Neck			R.ASIS			L.ASIS			R.Thigh.Superior			R.Thigh.Lateral			R.Thigh.Inferior			R.Patella			L.Thigh.Superior			L.Thigh.Lateral			L.Thigh.Inferior			L.Patella			L.Shank.Superior			L.Shank.Lateral			L.Shank.Inferior			R.Shank.Superior			R.Shank.Lateral			R.Shank.Inferior			R.Heel			R.Midfoot.Superior			R.Midfoot.Lateral			R.Toe			L.Heel			L.Midfoot.Lateral			L.Midfoot.Superior			L.Toe			L.Elbow			L.Wrist			R.Elbow			R.Wrist			
		X1	Y1	Z1	X2	Y2	Z2	X3	Y3	Z3	X4	Y4	Z4	X5	Y5	Z5	X6	Y6	Z6	X7	Y7	Z7	X8	Y8	Z8	X9	Y9	Z9	X10	Y10	Z10	X11	Y11	Z11	X12	Y12	Z12	X13	Y13	Z13	X14	Y14	Z14	X15	Y15	Z15	X16	Y16	Z16	X17	Y17	Z17	X18	Y18	Z18	X19	Y19	Z19	X20	Y20	Z20	X21	Y21	Z21	X22	Y22	Z22	X23	Y23	Z23	X24	Y24	Z24	X25	Y25	Z25	X26	Y26	Z26	X27	Y27	Z27	X28	Y28	Z28	X29	Y29	Z29	X30	Y30	Z30	X31	Y31	Z31	X32	Y32	Z32	X33	Y33	Z33	

18	32.115500000000	824.202566012684	1015.740731127673	527.270479096783	1009.486418847555	1423.022574003016	320.160855885567	1130.870931098147	1342.747445881673	464.011423842019	1085.743305507154	1427.996458912871	647.057867192824	1040.675847158543	1485.076870169314	472.724127239655	1051.594400589379	938.040199348909	628.598046495250	1019.543291033381	948.064659989453	353.234999153434	1043.939343736533	726.047900253318	605.622116105497	938.694867239921	635.993519719455	669.310467840112	996.835877047591	568.364843597995	589.774443899617	982.311644930908	487.024824074395	595.357997441250	1102.497884074960	791.231186078314	392.027371463227	1079.350322483003	662.818179802660	301.174584941875	1184.801409202531	611.876065630007	367.066929967211	1220.003884378675	542.402492198373	359.723364332943	1197.273773056643	464.892011210060	346.201358872629	1125.146723270358	345.401378654295	277.972635973698	1195.355480514361	234.572748299422	334.061391963589	948.637328175888	404.961051243011	600.723503558841	874.025202186111	302.680396946926	660.544817324980	915.180291194046	207.747625588743	594.747287558752	778.776571154291	43.099229236811	558.659946908387	950.249099883171	97.503692802597	599.506630420676	860.442740977631	36.577560275974	634.162764215716	1068.946514601850	43.601793468931	628.137011026642	1094.448702486329	58.819590574735	349.448879451403	1176.033358967481	65.519277808028	277.216972655975	1248.129254197308	137.242610585727	310.874009049281	1382.131443347606	102.940296905464	294.710502406147	847.828889082397	1105.311993492172	234.877412189642	796.797585844216	850.783955017400	251.901920576623	1181.412616687973	1105.019139806565	773.213834964274	1412.983174948424	1103.773112760145	668.752506778041	
19	32.127000000000	825.155416943906	1014.041604509551	524.929761691041	1009.163869119767	1422.146755451872	318.901438547334	1130.565258315198	1341.815147913422	462.686805912518	1084.992635230709	1426.607669296186	645.768747366341	1039.911646155363	1483.841558486832	471.707932959342	1052.100147692983	936.940525343053	627.325240581860	1021.197226875253	946.002311704066	351.662126531542	1042.002072621011	724.428193838196	604.687438908590	935.422652288398	635.525925566709	668.579258827730	992.532984151774	567.203378224900	589.136886931511	977.276225000549	485.830244432052	594.879218277106	1102.259775352459	786.721495414080	390.955006741299	1076.933127392210	658.395152740201	300.153354558239	1181.511690035408	606.321915639778	366.295636085132	1215.982385876285	537.845467720358	359.237648139598	1194.607463468741	460.952854371335	345.427013188266	1124.940052691054	339.488706517169	278.243013776975	1198.196297223865	230.610107387110	334.292607042761	942.624913957575	404.299093532404	600.317632632705	867.425449577863	302.618511624145	660.405320050344	907.759108378914	207.371094210843	594.589136133138	770.611648072386	42.932324126781	558.668896200587	941.987678328611	97.347522307492	599.413978880151	852.261056628756	36.497313842891	634.237901916609	1060.807380587433	43.579220324478	628.138915032345	1101.371718461066	53.181366997683	350.869021757651	1182.594516987313	60.865958968368	278.296333367262	1253.577051880618	133.848939721547	311.401318086453	1388.170021024569	101.630115528308	294.904965958022	841.650562203251	1108.574380312982	233.231512767152	786.289995277160	854.887238321457	252.821576863212	1190.081962233281	1107.168282751464	769.039820389268	1417.797369427042	1125.431863812093	659.777290385578	
20	32.138500000000	826.303503277996	1012.110709205003	522.385072358148	1008.846639676977	1421.185993938330	317.485797820404	1130.243656280459	1340.953381155476	461.304705211409	1083.970702651669	1425.201166070901	644.385023684824	1039.025387617753	1482.550576550815	470.550329289988	1052.866596379388	935.740392153388	625.885647649247	1023.118934203925	943.868313142429	350.023235598068	1040.773740882263	722.761798613156	603.468515157321	933.035860616923	634.880909606861	667.600618237578	989.164621338030	565.953924482214	588.189245593507	973.115027729233	484.445398277913	594.086701657973	1102.370997409176	781.967523669374	389.630522148979	1074.504082026328	653.783119798115	299.161910185272	1178.375032957743	600.617158659586	365.339080055728	1211.851460852783	532.840859602819	358.483000636826	1191.449249869213	456.553755209871	344.466436505984	1123.105093420410	333.559247817282	279.150551440876	1199.040713726613	226.337535677167	334.833519416659	937.406761405289	403.424337323607	599.679731754848	861.472161319483	302.508014384990	660.133785537773	900.672011929084	206.845019442905	594.309808852665	762.467846050403	42.783787391730	558.690858087494	933.739175462698	97.150496783841	599.266141053483	844.104392826527	36.420749967126	634.338874431124	1052.693578940387	43.478104202243	628.137294574116	1105.151673024449	48.381043702321	353.453542615364	1185.580018556614	56.293128548060	280.084771711551	1256.232194566714	129.767974376076	312.196246793086	1390.919358200278	98.378482041785	294.641407909455	836.196624809571	1111.520431741040	231.557865010525	776.727924513718	858.681341310119	253.583847733928	1198.327257291935	1109.476903102791	764.547056039561	1420.782415558693	1146.661575759248	651.123422363127	
21	32.150000000000	827.601846965328	1010.032722877586	519.673030597909	1008.557045099213	1420.180660652530	315.903442242790	1129.933328294467	1340.193857941900	459.844093336991	1082.738981761110	1423.820142582253	642.889888077594	1038.065718398557	1481.251591738140	469.226119167396	1053.864313796369	934.466199272620	624.266765594832	1025.230578013485	941.751644476236	348.322638541923	1040.250226687644	721.068781448460	601.975061044615	931.509585081226	634.070939278911	666.355712513432	986.730106012101	564.612495648820	586.941804405993	969.812154343214	482.884482287747	592.965922787640	1102.811712482905	777.158734535489	388.028402703093	1072.084686225051	649.156748218114	298.224956750191	1175.491316589713	595.009131260772	364.174483151813	1207.744735948574	527.625139015574	357.511635414236	1187.969197874873	451.899627939106	343.378003390326	1119.942152765857	327.786359919679	280.505832010028	1198.102944242892	221.880383767582	335.587230721876	932.973097592170	402.353639000362	598.793514112693	856.155884995680	302.368138222581	659.705836035590	893.924520554753	206.192860071719	593.903120093198	754.351175387951	42.690002112443	558.729148875555	925.519548154006	96.924420097323	599.063189844904	835.980258508759	36.363308457416	634.461219728517	1044.607409040361	43.290295671922	628.135710440237	1105.947092651898	44.453060301457	356.807411271946	1185.305550319613	51.895644414085	282.326133540454	1256.352370790007	125.129361723528	313.190553969041	1390.732693924045	93.357242176165	294.073530287397	831.515011251600	1114.097186601315	229.844070207746	768.154110089320	862.127567958625	254.148379797654	1206.098985943956	1111.916641153845	759.776403320354	1422.072923022928	1167.227899087691	642.880012594912	
